<?xml version="1.0" encoding="utf-8"?>
<!-- Generator: Adobe Illustrator 22.0.0, SVG Export Plug-In . SVG Version: 6.00 Build 0)  -->
<svg version="1.1" xmlns="http://www.w3.org/2000/svg" xmlns:xlink="http://www.w3.org/1999/xlink" x="0px" y="0px"
	 viewBox="0 0 140.8 114.9" style="enable-background:new 0 0 140.8 114.9;" xml:space="preserve">
<style type="text/css">
	.st0{fill:#FFFFFF;}
</style>
<g id="Layer_2">
</g>
<g id="Layer_3">
	<g>
		<path class="st0" d="M23.2,83.7c0-2.4,0-4.7,0-6.9c0-2.8-0.1-5.5,0-8.3c0-1.2-0.4-1.8-1.5-2.2c-7.2-3-10.7-8.9-11.6-16.3
			c-0.9-7.3,1.8-13.4,8-17.4c2.5-1.6,5.6-2.6,8.6-3.5c26.8-8.2,53.7-16.3,80.6-24.4c10.4-3.2,20.3,2,23.6,12.5
			c1.1,3.6,2.3,7.2,3.2,10.9c1.2,4.7-1.1,8.8-5.8,10.4c-3,1-6,1.8-9.2,2.8c1,3.2,1.9,6.3,2.9,9.4c2.4,7.5-2.1,13.9-10,13.9
			c-10.5,0.1-21,0.3-31.5,0.4c-11.2,0.1-22.4,0.3-33.6,0.5c-1.1,0-2.2,0.6-3.3,1c-2.7,1.1-5.5,2.1-8.2,3.4c-1.5,0.7-2.8,1.9-3.9,3.1
			c-1.8,2-1.8,4.7,0.2,6.6c1.6,1.6,3.6,2.7,5.4,4c0.4,0.3,1.1,0.2,1.7,0.2c28.4,0,56.8,0,85.3,0c6.9,0,12.4,4.8,13.4,11.6
			c0.9,6.4-3.1,12.7-9.5,14.6c-1.5,0.4-3.1,0.6-4.7,0.6c-35.1,0-70.2,0-105.3,0c-7.7,0-12.9-4.2-14.2-11.3
			c-1.4-7.6,4.9-15.3,12.6-15.4C18.7,83.7,20.8,83.7,23.2,83.7z M59.4,59.2c0,0.1,0,0.2,0.1,0.3c0.3,0,0.7,0.1,1,0.1
			c11.1-0.1,22.3-0.3,33.4-0.5c6.2-0.1,12.4-0.2,18.6-0.3c2.9-0.1,5.2-2.4,4.6-4.9c-0.9-3.7-2.2-7.3-3.3-11.1
			C95.5,48.3,77.5,53.8,59.4,59.2z M30.7,50.8c1.4,0.1,2.8-1.1,3-2.5c0.1-1.4-1.1-2.8-2.5-3c-1.4-0.1-2.8,1-3,2.5
			C28,49.2,29.3,50.7,30.7,50.8z"/>
	</g>
</g>
</svg>
