<?xml version="1.0" encoding="utf-8"?>
<!-- Generator: Adobe Illustrator 22.0.0, SVG Export Plug-In . SVG Version: 6.00 Build 0)  -->
<svg version="1.1" xmlns="http://www.w3.org/2000/svg" xmlns:xlink="http://www.w3.org/1999/xlink" x="0px" y="0px"
	 viewBox="0 0 140.8 73.9" style="enable-background:new 0 0 140.8 73.9;" xml:space="preserve">
<style type="text/css">
	.st0{fill:#FFFFFF;}
</style>
<g id="Layer_2">
</g>
<g id="Layer_3">
	<path class="st0" d="M12.6,2.8c36.5,3,72.5,8.1,107,21.1c3.5,1.3,7,2.9,10.2,4.9c9,5.4,11.5,17,5.7,25.5c-3.2,4.6-6.6,5.8-11.9,3.5
		c-6.4-2.8-12.6-5.7-18.9-8.7C94.4,44.3,84,40.5,72.9,38.4c-17.1-3.3-34-7.5-51.1-10.8c-6.7-1.3-11.1-4.9-14-10.6
		c-1.3-2.7-2.3-5.7-3.1-8.6c-1.1-4,0-5.4,4.2-5.5C10.2,2.8,11.4,2.8,12.6,2.8z"/>
	<path class="st0" d="M64.4,60c18.1,0,36.3,0,54.4,0c4.9,0,6.1,2.1,3.8,6.4c-1.8,3.5-4.9,4.8-8.8,4.8c-13.8,0-27.5,0-41.3,0
		c-20.5,0-41,0-61.4,0c-1.3,0-2.6,0.1-3.9-0.2c-2.9-0.6-4.9-3.2-4.9-6.1c0.1-3,2.4-5.5,5.6-5.8c0.8-0.1,1.6,0,2.5,0c18,0,36,0,54,0
		C64.4,59.4,64.4,59.7,64.4,60z"/>
	<path class="st0" d="M99,48.5c-0.2,2.2-0.6,3.9-0.3,5.5c0.1,0.6,2.3,1.6,2.8,1.3c1.4-0.8,2.4-2.3,4.1-4c3.8,1.8,8.5,4,13.2,6.2
		c0,0.2-0.1,0.3-0.1,0.5c-12.7,0-25.4,0-38.7,0c1.4-2.7,2.6-5,4.1-7.8c-22.3,0-44,0-65.8,0c0-5.9,0-11.4,0-16.8
		c16.9-3.1,32.7,2,48.6,5.4c0,0.3,0,0.6,0,0.9c-10.6,0-21.3,0-31.9,0c0,0.4-0.1,0.8-0.1,1.2c1.1,0.2,2.2,0.4,3.4,0.4
		c10.6,0,21.2,0.5,31.8-0.1C80.8,40.9,90.3,44,99,48.5z M22.6,34.8c-1.3,1.9-2.5,3-2.5,4c0,0.9,1.6,2.5,2.2,2.4
		c1.1-0.2,2.5-1.4,2.7-2.4C25.2,37.9,23.9,36.8,22.6,34.8z"/>
	<path class="st0" d="M20.4,28.1c1.4,1.1,2.9,2.2,4.3,3.3c-1.6,0.6-3.2,1.2-5.3,2c0-2.1,0-3.3,0-4.4C19.7,28.7,20,28.4,20.4,28.1z"
		/>
</g>
</svg>
