<?xml version="1.0" encoding="utf-8"?>
<!-- Generator: Adobe Illustrator 22.0.0, SVG Export Plug-In . SVG Version: 6.00 Build 0)  -->
<svg version="1.1" xmlns="http://www.w3.org/2000/svg" xmlns:xlink="http://www.w3.org/1999/xlink" x="0px" y="0px"
	 viewBox="0 0 216 200.7" style="enable-background:new 0 0 216 200.7;" xml:space="preserve">
<style type="text/css">
	.st0{fill:#B6B2AC;}
	.st1{fill:#C4C0BD;}
	.st2{fill:#FFFFFF;}
	.st3{fill:#966037;}
</style>
<g id="Layer_5">
	<path class="st0" d="M8.4,170.3l0.5-4.4l0.1-3.8l1-2.1l6.1-3.5l48.1-26.6l13,1.6c0,0-0.1,1.4,4.9-2.3l28.2-18.3l24.8-16.7
		l26.2-19.2l10-8l5.8-3.7l2,8.4l0.3,4.4l0.5,5.4L178,84l-9.2,6.7l-36.2,28.7l-9.5,7.5l-10.1,8.3l-16.1,13L80.1,163l-2.4,2l-4.1,3.1
		l-4.3,2.9c0,0-1.6,0.1-1.6,4.4s-0.8,7.8-0.8,7.8l-4.3-1.3l-14.9-2.8l-25.1-5.4L8.4,170.3z"/>
	<path class="st1" d="M9.3,161c0,0,2.3,1.6,8.1,2.8l13,3l25,4.4l9.6,1.5c0,0,2.9,0.2,6.1-2.8l10.5-8.3l32-27.4l33.5-26.5l25.6-20.1
		l6.5-4.8l0.4-3.8L179,71l-1.4-6.7l-0.4-0.8l-6.8,4.8l-14.7,10.9l-13.8,10.4l-15.8,11l-47.4,31.2L67.8,131l-27.9-3.4l-26-5.1
		l-4.5-1.2c0,0-1.9-2-1.8-4.2l0.3-4.8l7.8,1.2l63.3,7.8l82.2-61.7L207,31.3l0.5,7.8l-1.1,2.4l-4.4,3l-1.8,1.7l-0.1,3.6l0.8,0.9
		l4.6-1.6l3.1,0.3l2.2,0.3l1.4,1.5l0.8,3.4l-0.3,1.9l-5.8,6.4c0,0-1.9,1-0.6,3.3l0.6,2.6l-23.5,27.3L114,155.5L68,192l-54.8-8.3
		l-5.8-9.3L9.3,161z"/>
	<polygon class="st1" points="22.5,160.3 19.3,158.8 25.7,155.3 33.8,150.7 38.2,148.7 42,148.3 52,149 62.8,150 79.5,152.7 
		77.8,155.5 64.7,166.2 62,166.2 	"/>
</g>
<g id="Layer_2">
	<path d="M200.7,49.3c2-0.4,3.7-0.7,5.3-1.2c2.6-0.7,4.8,0.3,6.5,1.9c1.5,1.4,1.7,3.2,1,5.4c-0.9,2.9-2.6,5-4.8,6.8
		c-0.5,0.4-1.3,0.5-2,0.7c-0.1-0.2-0.2-0.3-0.2-0.5c0.7-0.8,1.3-1.5,2.1-2.2c1.7-1.6,3-3.5,3.7-5.7c0.4-1.4,0-3.4-2.5-4.5
		c-1.7-0.7-3.4-0.9-5.2-0.2c-0.2,0.1-0.4,0.1-0.6,0.1c-2.7,0.5-2.7,0.5-2.9,3.3c-0.1,0.8-0.3,1.6-0.5,2.4c-0.7,2.7,0.8,4.8,1.7,7
		c0.3,0.9,0.4,1.9,0.6,2.8c-0.2,0.1-0.5,0.2-0.7,0.3c-0.7-1.6-1.5-3.2-2.4-5c-0.9,1.9-1.5,3.6-2.3,5.1c-2,3.6-4.6,6.8-8.2,8.9
		c-2.9,1.7-5.9,2-9.1-0.6c0.1,1.4,0.1,2.4,0.2,3.4c0.1,0.8,0.2,1.5,0.4,2.2c0.7,2.4-0.8,3.6-2.4,4.8c-3.5,2.7-7.1,5.3-10.6,8
		c-4,3.1-8,6.3-11.9,9.4c-3.4,2.7-6.9,5.5-10.3,8.2c-3.2,2.5-6.5,4.9-9.6,7.4c-3.7,2.9-7.3,6-11,9c-2.8,2.3-5.7,4.4-8.4,6.7
		c-2.4,2-4.8,4.1-7.2,6.1c-3,2.5-6.1,5-9.2,7.6c-2.8,2.4-5.5,4.9-8.3,7.2c-2.5,2.2-5.2,4.2-7.7,6.3c-2.4,2-4.6,4.1-7,6
		c-2.3,1.8-4.7,3.3-7.1,4.9c-0.3,0.2-0.8,0.1-1.2,0.1c3-2.3,6-4.5,8.9-6.8c2.2-1.8,4.1-3.8,6.3-5.7c3.1-2.7,6.3-5.2,9.4-7.9
		c2.2-1.8,4.2-3.8,6.4-5.6c2.4-2,5-3.9,7.5-6c1.7-1.4,3.4-3,5.1-4.4c4-3.3,8.1-6.5,12.2-9.8c2.8-2.2,5.5-4.5,8.3-6.7
		c2.6-2.1,5.3-4.2,8-6.3c3.3-2.7,6.6-5.4,10-8.1c2.6-2.1,5.3-4,8-6.1c3-2.4,6-4.9,9-7.2c3.2-2.5,6.5-5,9.8-7.5
		c1.9-1.4,2.1-2.1,1.7-4.4c-0.3-1.7,0-3.4-0.1-5.1c0-0.9-0.2-1.9-0.4-2.8c-0.4-2-1-4.1-1.5-6.1c0-0.1-0.1-0.3-0.2-0.5
		c-0.3,0.1-0.6,0-0.8,0.2c-2.3,1.7-4.5,3.4-6.7,5.2c-1.6,1.2-3.1,2.5-4.7,3.7c-2.4,1.9-4.8,3.7-7.3,5.5c-2.7,2-5.6,3.9-8.3,5.9
		c-2.1,1.5-4,3.2-6,4.7c-2.6,1.9-5.2,3.7-7.8,5.5c-2.3,1.6-4.6,3.2-6.9,4.8c-3.7,2.5-7.3,5-11,7.6c-2.2,1.5-4.4,3.1-6.7,4.5
		c-2,1.3-4.1,2.5-6.1,3.8c-2.2,1.5-4.4,3-6.6,4.4c-4,2.6-8,5.1-12,7.6c-1.3,0.8-2.5,1.6-3.8,2.4c-0.4,0.2-0.9,0.3-1.3,0.5
		c-0.1-0.1-0.2-0.2-0.4-0.4c0.2-0.4,0.4-0.9,0.7-1.2c2.9-1.9,5.8-3.7,8.7-5.6c4.7-3.1,9.4-6.3,14.2-9.4c3.8-2.5,7.6-4.8,11.4-7.3
		c3.4-2.2,6.7-4.5,10-6.8c3.4-2.4,6.9-4.8,10.3-7.3c2.6-1.9,5.1-3.8,7.7-5.7c3.5-2.5,7-4.8,10.5-7.3c2.8-2,5.5-4.2,8.3-6.2
		c2-1.5,4.1-2.8,6.1-4.3c2.1-1.5,4-3.1,6.1-4.6c1-0.8,2.2-1.4,3.6-2.2c0.5,2.1,0.9,3.9,1.3,5.7c0.7,2.5,1.5,4.9,4.1,6
		c0.7,0.3,1.7,0.4,2.4,0.2c3-1.1,5.4-2.9,7.4-5.4c2.6-3.1,4.3-6.6,5.3-10.6c0.9-3.8,1.1-7.6,1.3-11.4c0.1-1.5,0.7-2.4,1.7-3.1
		c1.5-1.2,3.2-2.1,4.5-3.4c0.8-0.8,1-2.2,1.4-3.3c-0.2-0.1-0.4-0.2-0.5-0.4c-1.1,0.8-2.3,1.7-3.4,2.5c-2.2,1.6-4.4,3.1-6.6,4.7
		c-1.3,0.9-2.5,2-3.8,2.9c-2.6,1.9-5.2,3.7-7.8,5.5c-2.1,1.5-4.1,3-6.2,4.5c-1.3,0.9-2.5,1.8-3.8,2.7c-3.1,2.1-6.2,4.3-9.4,6.4
		c-2.6,1.8-5.3,3.5-8,5.3c-1.9,1.3-3.8,2.7-5.7,4.1c-2.9,2-5.9,4-8.8,6.1c-2.4,1.7-4.8,3.4-7.2,5.1c-2.6,1.7-5.2,3.3-7.8,5
		c-3,2-5.9,4.2-8.9,6.3c-1.3,0.9-2.7,1.8-4,2.8c-2.2,1.5-4.4,3.1-6.6,4.6c-1.8,1.2-3.7,2.4-5.5,3.6c-1.4,1-2.8,2.1-4.3,3.1
		c-1.8,1.3-3.6,2.5-5.5,3.7c-1.6,1.1-3.2,2.2-4.9,3.2c-2,1.2-3.9,2.8-6,3.2c-1.5,0.3-3,0.7-4.6,0.7c-3.5-0.2-7.1-0.1-10.6-0.4
		c-5.5-0.4-10.9-0.9-16.4-1.5c-4-0.4-7.9-0.9-11.9-1.5c-2.8-0.4-5.6-1.1-8.4-1.7c-1-0.2-1.9-0.2-2.9-0.3c-3.5-0.5-7.1-1-10.5-1.7
		c-2.6-0.5-5.1-1.3-7.6-2c-0.4-0.1-0.8,0-1.3,0c0,2.1,0,4.2,0,6.3c-0.2,0.1-0.4,0.1-0.5,0.2c-0.2-0.5-0.7-1-0.7-1.5
		c-0.1-1.6,0-3.2-0.1-4.8c0-0.4-0.5-1.1-0.9-1.2c-2-0.8-3-2.2-3.1-4.3c-0.2-4.3-0.5-8.5-0.4-12.8c0.1-9,0.5-18.1,0.8-27.1
		c0.1-2,0.7-4.1,1.3-6.1c0.3-0.9,1.4-1.5,1.7-2.4c0.7-2.5,3-2.8,4.8-3.7c2.3-1.2,4.6-2.3,7-3.4c2.8-1.3,5.6-2.4,8.3-3.7
		c2.1-1,4.1-2.1,6.2-3c3-1.3,6-2.5,9-3.8c1.8-0.8,3.7-1.5,5.5-2.3c2.7-1.2,5.4-2.4,8.2-3.5c4.1-1.6,8.3-3.1,12.4-4.7
		c3.5-1.4,7-2.9,10.6-4.2c2.6-1,5.3-1.7,7.9-2.6c2.3-0.8,4.5-1.7,6.8-2.5c1.8-0.6,3.7-1.2,5.6-1.8c1.7-0.6,3.4-1.3,5.1-1.9
		c2-0.7,3.9-1.2,5.9-1.9c3.4-1.1,6.7-2.3,10.1-3.4c2.3-0.8,4.7-1.3,7.1-2.1c2.6-0.8,5.2-1.8,7.9-2.6c1.4-0.4,2.8-0.7,4.2-1.1
		c4.4-1.4,8.8-2.8,13.2-4.2c0.3-0.1,0.6-0.1,0.9-0.1c6.6-1.2,13.3-1.1,20-0.9c6.4,0.2,12.7,0.4,19.1,1c4,0.4,8.1,1.2,12,2.2
		c2,0.5,3.9,1.7,5.4,3c0.8,0.7,1.1,2.4,1.2,3.6c0.3,3.8,0.4,7.7,0.7,11.5c0.3,3.4-0.8,6.5-2.4,9.4c-0.5,0.9-1,1.9-1.4,2.9
		c-0.1,0.2,0,0.6,0.1,0.9c0.8,2.4,0.1,4.1-2.1,5.4c-1.6,1-3.2,1.9-4.4,3.2C200.6,46.3,200.9,47.8,200.7,49.3z"/>
	<path d="M3.9,180.6c-0.4-1.5-0.4-1.9-0.5-3c-0.2-2.1-0.3-4.3-0.3-6.5c0-2.1,1.5-3.8,3.6-4c1.2-0.1,1.8-0.6,1.6-1.8
		c-0.6-3.6,1-5.7,4.2-7.3c3.5-1.8,6.7-4.1,10.1-6.1c3.7-2.1,7.5-4.2,11.3-6.2c3.9-2.1,7.7-4.1,11.6-6.2c1.6-0.9,3.1-1.9,4.8-2.8
		c2.9-1.6,5.9-3.1,8.9-4.6c0.6-0.3,1.1-0.7,1.7-0.9c0.4-0.1,0.8,0,1.2,0.1c-0.1,0.4-0.2,0.9-0.5,1.1c-0.9,0.6-1.8,1.3-2.8,1.7
		c-2.5,1.3-5,2.4-7.4,3.7c-1.6,0.8-3.1,1.8-4.7,2.7c-1.2,0.7-2.5,1.4-3.7,2.1c-3,1.7-6.1,3.5-9.1,5.2c-3.6,2-7.2,3.8-10.8,5.8
		c-2.7,1.5-5.2,3.2-7.9,4.7c-1.3,0.8-2.7,1.4-4,2c-1.2,0.5-1.9,1.2-1.8,2.6c0.1,2.3,0,4.5,0,6.4c2.3,0.7,4.3,1.5,6.4,2.1
		c1.8,0.5,3.6,1.1,5.4,1.5c4.2,0.9,8.3,1.7,12.5,2.6c4.4,0.9,8.7,2,13.1,2.8c5.1,0.9,10.2,1.6,15.4,2.5c1.2,0.2,2.4,0.6,3.6,1.1
		c1.1,0.5,1.9,0,2.6-0.8c1.2-1.3,2.2-2.8,3.5-3.9c2.6-2.3,5.4-4.3,8.1-6.5c1.7-1.3,3.4-2.6,5-4c1.7-1.4,3.3-2.9,5-4.3
		c3.9-3.1,7.8-6.2,11.7-9.3c2.4-1.9,4.7-4,7.1-5.9c3.2-2.6,6.5-5.1,9.7-7.7c3.3-2.7,6.4-5.5,9.7-8.2c2.2-1.8,4.5-3.4,6.7-5.2
		c3.5-2.8,7-5.8,10.5-8.6c2.4-1.9,4.9-3.7,7.3-5.7c3.2-2.6,6.2-5.3,9.4-7.8c2.5-2,5.2-3.9,7.8-5.9c3.1-2.5,6.1-5,9.2-7.5
		c3.1-2.5,6.3-5,9.4-7.5c2.4-2,4.9-3.9,7.3-5.9c2.5-2,4.9-3.9,7.4-5.9c0.9-0.7,1.9-1.2,2.5-2.1c0.4-0.7,0.3-1.7,0.3-2.6
		c0-0.6-0.2-1.2-0.4-1.8c0.3-0.1,0.5-0.1,0.5-0.1c1.1,2,3.4,0.8,4.7,1.8c0.8,0.7,2,1.5,2.1,2.4c0.3,2.3,0.4,4.7,0,6.9
		c-0.3,1.5-1.5,2.8-2.4,4.2c-0.2,0.3-0.6,0.5-0.6,0.8c0.1,1.9-1.6,2.7-2.6,3.8c-2.8,2.8-5.7,5.3-8.7,7.9c-3.3,2.8-6.6,5.6-9.9,8.4
		c-1.6,1.4-3.1,2.9-4.7,4.2c-2.3,1.9-4.6,3.7-6.9,5.6c-2.2,1.8-4.3,3.6-6.4,5.4c-2,1.7-4.1,3.4-6.1,5.1c-3.6,3-7.2,6.1-10.9,9.1
		c-3.9,3.3-7.8,6.5-11.7,9.8c-2.9,2.5-5.8,5-8.8,7.5c-3.7,3.1-7.4,6.1-11,9.2c-1.7,1.4-3.3,3-5.1,4.4c-2.5,2-5,4-7.5,6
		c-1.2,1-2.4,2-3.6,3c-2.2,1.8-4.4,3.5-6.5,5.4c-2.4,2-4.7,4.2-7.1,6.2c-3.2,2.7-6.5,5.3-9.8,7.9c-3.2,2.5-6.4,5-9.6,7.5
		c-0.4,0.3-0.8,0.5-1.3,0.7c-1,0.3-2.1,0.4-3.1,0.8c-2.7,1.1-5.2,0.1-7.8-0.4c-1.2-0.2-2.4-0.2-3.5-0.4c-2.5-0.5-5-1.2-7.5-1.7
		c-1.8-0.4-3.6-0.6-5.4-1.1c-4.5-1.2-8.9-2.4-13.4-3.6c-3.1-0.8-6.2-1.7-9.3-2.6c-2.5-0.8-4.9-1.7-7.4-2.5c-2.1-0.7-4.3-1.3-6.5-2
		c-1-0.3-2.1-0.7-2.9-1.3C4.5,182.4,4.4,182.4,3.9,180.6z"/>
	<path d="M8.6,120.5c1.8,0.4,3.5,0.8,5.3,1.2c2,0.5,3.9,1,5.9,1.4c3.9,0.7,7.8,1.4,11.7,2.1c1.9,0.3,3.8,0.6,5.7,0.9
		c3.5,0.5,6.9,1.1,10.4,1.5c5.8,0.7,11.7,1.2,17.5,1.9c4.2,0.5,8.4,0.9,12.6,1.5c0.4,0.1,0.8,0.5,1.2,0.8c-0.1,0.1-0.1,0.3-0.2,0.4
		c-1.3,0-2.6,0.1-3.9,0c-4.5-0.4-9-0.9-13.4-1.4c-2.7-0.3-5.4-0.8-8.2-1.1c-1.4-0.2-2.8-0.2-4.1-0.4c-4.4-0.5-8.8-1.1-13.2-1.7
		c-3.4-0.5-6.8-0.9-10.1-1.6c-5.2-1.1-10.3-2.4-15.4-3.6c-0.8-0.2-1.4-0.8-2.1-1.2C8.4,120.9,8.5,120.7,8.6,120.5z"/>
	<path d="M17.4,160.3c0.3-0.6,0.5-1.4,0.9-1.7c1.5-1.1,3.2-2.1,4.8-3c2.5-1.4,4.9-2.7,7.4-4c1.6-0.8,3.3-1.4,4.7-2.4
		c1.6-1.2,3.4-1.4,5.2-1.4c4.8,0.1,9.7,0.1,14.5,0.4c4.9,0.3,9.8,0.9,14.6,1.5c3.5,0.5,7,1.1,10.5,1.8c0.6,0.1,1,0.7,1.6,1.1
		c-0.1,0.2-0.1,0.4-0.2,0.6c-1-0.1-2-0.1-3-0.3c-2.2-0.4-4.5-0.9-6.7-1.2c-3.1-0.4-6.2-0.5-9.3-1c-5.8-1-11.7-1.4-17.6-1.6
		c-1.2,0-2.3-0.3-3.5-0.4c-2.7-0.4-4.7,1.1-6.8,2.3c-3.4,1.8-6.9,3.5-10.4,5.4c-2.2,1.2-4.2,2.6-6.3,3.8
		C17.7,160.4,17.6,160.3,17.4,160.3z"/>
	<path d="M65.9,172.9c-1.3,0-2.6,0.1-3.9,0c-1.7-0.2-3.4-0.4-5.1-0.7c-3.4-0.6-6.8-1.2-10.2-1.8c-2.1-0.4-4.2-0.6-6.3-1
		c-3.4-0.7-6.7-1.4-10.1-2.1c-1.9-0.4-3.8-0.6-5.7-1c-3.4-0.7-6.8-1.4-10.2-2.2c-0.9-0.2-1.7-0.7-2.5-1c0-0.1,0-0.3,0.1-0.4
		c0.4,0,0.8-0.1,1.2-0.1c3.6,0.8,7.3,1.7,10.9,2.6c1,0.2,2,0.2,3,0.4c3.4,0.7,6.9,1.4,10.3,2.1c1.8,0.4,3.6,0.7,5.4,1
		c4.4,0.7,8.7,1.5,13.1,2.2c2.9,0.5,5.8,0.9,8.7,1.3c0.5,0.1,0.9,0.2,1.4,0.3C65.9,172.5,65.9,172.7,65.9,172.9z"/>
	<path d="M19.8,161.6c1.2,0.1,2.4,0.1,3.5,0.3c2.6,0.4,5.2,0.9,7.8,1.3c3.3,0.6,6.6,1.2,9.9,1.8c0.8,0.1,1.5,0.1,2.3,0.3
		c4.7,0.7,9.5,1.5,14.2,2.3c1.7,0.3,3.5,0.6,5.3,0.9c-0.3,1.3-1.2,1.6-2.6,1.3c-2.4-0.5-4.8-0.9-7.2-1.4c-4.1-0.7-8.2-1.5-12.3-2.2
		c-2-0.3-4-0.6-6-0.9c-4.5-0.8-8.9-1.5-13.4-2.4c-0.5-0.1-1-0.5-1.6-0.8C19.8,162,19.8,161.8,19.8,161.6z"/>
	<path d="M53.1,155.5c3.5,0.6,6.6,1.1,9.8,1.6c0.7,0.1,1.4,0,2,0.3c0.5,0.2,1.2,0.9,1.2,1.3c-0.1,0.5-0.8,1.2-1.3,1.2
		c-2.2,0.1-4.4,0.1-6.6-0.1c-2.1-0.2-4.2-0.8-6.2-1.3c-0.7-0.2-1.2-0.6-1.8-1c0.4-0.5,0.8-1,1.4-1.4C52,155.8,52.7,155.6,53.1,155.5
		z"/>
	<path d="M44.6,157.9c-3.2-0.5-6.2-1-9.2-1.6c-0.8-0.1-1.7-0.4-2.4-0.7c-0.6-0.3-0.7-0.9-0.1-1.4c0.6-0.4,1.3-1,2-1
		c2.2,0,4.5,0.2,6.7,0.4c1.1,0.1,2.1,0.3,3.2,0.5c1.2,0.3,1.9,0.9,1.7,2.4C46.2,158,45.4,158,44.6,157.9z"/>
	<path d="M21.6,160.4c0.4-0.1,0.8-0.2,1.1-0.1c2.1,0.3,4.2,0.7,6.3,1.1c0.1,0,0.3,0.1,0.4,0.1c5.3,0.6,10.6,1.2,16,1.9
		c3.6,0.5,7.2,1.2,10.8,1.7c1.7,0.2,3.5,0.2,5.2,0.4c0.6,0.1,1.1,0.5,1.6,0.7c-0.1,0.2-0.1,0.3-0.2,0.5c-0.7,0-1.4,0.1-2.1,0
		c-4-0.5-7.9-1-11.9-1.5c-4.7-0.7-9.5-1.4-14.2-2.1c-3.3-0.5-6.5-1-9.8-1.5c-1.1-0.2-2.3-0.5-3.4-0.8
		C21.6,160.6,21.6,160.5,21.6,160.4z"/>
	<path d="M81.9,155c0.2,2.2-1.2,2.8-2.1,3.6c-1.6,1.3-3.2,2.6-4.9,3.9c-2,1.5-3.9,3.1-5.9,4.6c-0.7,0.5-1.3,1-2,1.5
		c-0.2-0.2-0.3-0.4-0.5-0.7C71,163.2,76.1,159,81.9,155z"/>
	<path d="M204.5,57.7c-1.5,0-2.7-1-2.6-2.1c0.1-1.2,2.4-3.1,3.7-3.1c1.6,0.1,2.5,1,2.5,2.5C208,56.7,206.7,57.7,204.5,57.7z
		 M203.3,55.3c0.1,0.2,0.1,0.5,0.2,0.7c0.8-0.1,1.7,0,2.5-0.2c0.2-0.1,0.4-0.7,0.4-1.1c0-0.2-0.7-0.5-0.9-0.4
		C204.7,54.5,204,55,203.3,55.3z"/>
	<path d="M191.1,58.8c0.3,0.1,0.5,0,0.5,0.1c1,1.1,0.1,4.8-1.2,5.4c-1.6,0.7-2.9,0.1-3.1-1.6c-0.1-0.9-0.1-1.9,0-2.8
		c0.3-2.2,1.2-2.8,3.2-2.6c-0.6,0.9-1.4,1.9-2,3c-0.2,0.3-0.3,0.9-0.2,1.2c0.2,0.5,0.7,0.9,1,1.3c0.3-0.4,0.8-0.8,0.9-1.2
		C190.7,60.7,190.9,59.8,191.1,58.8z"/>
	<path d="M65.4,165.6c3.7-4.4,8.4-7.4,12.7-11c0.2,0.2,0.3,0.4,0.5,0.6C74.7,159.3,69.9,162.2,65.4,165.6z"/>
	<path d="M78.9,123.1c1.4,1.1,1.5,5.2,0,6.4C78.9,127.3,78.9,125.3,78.9,123.1z"/>
	<path class="st2" d="M203.3,55.3c0.7-0.4,1.4-0.8,2.1-1c0.3-0.1,0.9,0.2,0.9,0.4c0,0.4-0.2,1.1-0.4,1.1c-0.8,0.2-1.6,0.2-2.5,0.2
		C203.4,55.8,203.4,55.6,203.3,55.3z"/>
</g>
<g id="Layer_3">
	<g>
		<path class="st3" d="M77.3,121.6c-1.3,0-2.7-0.2-4.2-0.3c-1.4-0.2-3.1-0.4-4.9-0.4c-6.1-0.2-43.8-5.3-55.8-7.8
			c-9.3-2-9.2-2.8-9-6.6c0-0.7,0.1-1.4,0.1-2.3c0-2,0-4.4,0.1-7.4c0-5.4,0.1-12.8,0.3-22.3c0.2-14.4,2.3-15.4,7.1-18
			c5.3-2.8,77.9-32.5,85.4-35.1c25.8-9.1,51-16.4,59.5-17.8c1.8-0.3,5-0.5,9.4-0.5c9.1,0,22.1,0.7,30.4,1.3
			C209.9,5.6,210,9.4,210,16.2c0,1.1,0,2.3,0.1,3.6c0.3,5.4,0.2,11.9-2.9,14.6c-11.1,9.5-123.1,85-124.2,85.8
			C81.2,121.1,79.5,121.6,77.3,121.6L77.3,121.6z"/>
		<path d="M165.3,4.2c9,0,22.1,0.7,30.3,1.3c13.3,1,13.4,4.1,13.4,10.7c0,1.2,0,2.3,0.1,3.6c0.3,4.8,0.3,11.4-2.6,13.8
			C195.6,43,85.7,117.1,82.4,119.3c-1.6,0.9-3.2,1.3-5.1,1.3c-1.3,0-2.6-0.2-4.1-0.3c-1.5-0.2-3.1-0.4-5-0.4
			c-6-0.2-43.6-5.2-55.7-7.8c-2.8-0.6-6.7-1.5-7.9-2.6c-0.5-0.4-0.5-1-0.3-2.9c0-0.7,0.1-1.5,0.1-2.3c0-2,0-4.4,0.1-7.4
			c0-5.4,0.1-12.8,0.3-22.3c0.2-13.8,2-14.7,6.6-17.1c5.3-2.8,77.8-32.4,85.2-35.1c25.8-9.1,50.8-16.3,59.3-17.7
			C157.8,4.3,160.9,4.2,165.3,4.2 M165.3,2.2c-4.1,0-7.6,0.1-9.6,0.5c-8.4,1.4-33.3,8.5-59.7,17.8c-7.8,2.7-80.3,32.4-85.5,35.2
			s-7.4,4.3-7.7,18.8c-0.3,14.6-0.3,23.8-0.3,29.7c-0.1,5.8-2.2,7.3,9.7,9.8c11.8,2.5,49.6,7.6,56,7.8c3.6,0.1,6.5,0.8,9.1,0.8
			c2.1,0,4-0.4,6.2-1.6c0,0,113.1-76.2,124.3-85.8c3.4-2.9,3.6-9.5,3.3-15.4c-0.5-9,2.3-14.9-15.3-16.3
			C188.1,2.9,174.8,2.2,165.3,2.2L165.3,2.2z"/>
	</g>
	<g>
		<path class="st3" d="M66.1,198c-1.1,0-2.3-0.3-3.5-0.6c-0.5-0.1-1-0.2-1.5-0.3c-0.6-0.1-1.3-0.2-1.9-0.2c-0.6,0-1.1-0.1-1.7-0.2
			c-1.4-0.3-2.7-0.6-4.1-0.9c-1.1-0.3-2.2-0.5-3.3-0.8c-0.8-0.2-1.6-0.3-2.3-0.4c-1-0.2-2-0.4-3-0.6c-3.8-1-7.7-2-11.4-3.1l-3.8-1
			c-2.4-0.7-5-1.3-7.4-2.1c-1.4-0.4-2.9-1-4.3-1.5c-1-0.4-2-0.7-3-1.1c-1-0.3-2.1-0.7-3.1-1c-1.1-0.3-2.2-0.7-3.4-1.1
			c-0.9-0.3-1.9-0.7-2.7-1.2c-0.3-0.2-0.4-0.2-0.7-1.6c-0.3-1.1-0.3-1.6-0.4-2.3c0-0.2,0-0.4-0.1-0.6c-0.2-2-0.3-4-0.3-6.4
			c0-1.5,1.1-2.9,2.6-3c0.6-0.1,1.2-0.2,1.6-0.5c0,0,0,2.5,0,2.5s2.1,0.7,2.8,0.9c1.5,0.5,2.9,1,4.3,1.4c1.7,0.5,3.6,1.1,5.5,1.5
			c2.5,0.5,4.9,1,7.4,1.5c1.7,0.3,3.4,0.7,5.1,1c1.6,0.3,3.1,0.7,4.7,1c2.8,0.6,5.6,1.2,8.5,1.8c2.9,0.5,5.9,1,8.8,1.4
			c2.2,0.3,4.4,0.7,6.5,1c1,0.2,2,0.5,3.4,1c0.4,0.2,0.8,0.2,1.2,0.2c1.2,0,2-0.7,2.5-1.3c0.5-0.5,0.9-1,1.3-1.5
			c0.7-0.9,1.4-1.7,2.1-2.3c1.8-1.6,3.8-3.1,5.7-4.6c0.8-0.6,1.6-1.3,2.4-1.9l1.5-1.2c1.2-0.9,2.4-1.9,3.5-2.8
			c0.8-0.6,1.5-1.3,2.3-2c0.9-0.8,1.8-1.5,2.7-2.3c1.9-1.5,3.8-3.1,5.8-4.6c2-1.6,3.9-3.1,5.9-4.7c1.2-1,2.4-2,3.6-3
			c1.2-1,2.3-2,3.5-2.9c1.4-1.2,2.9-2.3,4.3-3.4c1.8-1.4,3.6-2.8,5.4-4.3c1.7-1.4,3.3-2.7,4.9-4.1c1.6-1.4,3.2-2.7,4.8-4
			c1.2-0.9,2.4-1.9,3.5-2.8c1.1-0.8,2.1-1.6,3.2-2.5c1.7-1.4,3.4-2.7,5-4.1c1.8-1.5,3.6-3,5.5-4.5c1.2-0.9,2.3-1.8,3.5-2.7
			c1.3-1,2.6-1.9,3.8-3c1.5-1.2,3-2.5,4.5-3.7c1.6-1.4,3.2-2.7,4.9-4.1c1.3-1.1,2.7-2.1,4.1-3.1c1.2-0.9,2.5-1.8,3.7-2.8
			c1.9-1.5,3.8-3.1,5.6-4.6c1.2-1,2.4-2,3.6-3c1.9-1.5,3.8-3,5.6-4.5c1.2-1,2.5-2,3.7-3c1.2-1,6.1-4.9,7.3-5.9
			c1.5-1.2,2.9-2.3,4.4-3.5l3-2.4c0.2-0.2,0.5-0.4,0.7-0.5c0.7-0.5,1.5-1,2-1.8c0.5-0.8,0.5-1.8,0.5-2.7c0-0.1,0-0.3,0-0.4
			c0.6,0.2,1.3,0.3,1.8,0.3c0.6,0,1.2,0.1,1.5,0.3l0.1,0.1c0.6,0.4,1.6,1.2,1.6,1.7c0.3,2.6,0.3,4.7,0,6.6c-0.2,0.8-0.8,1.7-1.4,2.6
			c-0.3,0.4-0.6,0.9-0.9,1.3c0,0-0.1,0.1-0.1,0.1c-0.2,0.2-0.7,0.6-0.6,1.2c0,1-0.6,1.5-1.5,2.3c-0.3,0.2-0.6,0.5-0.8,0.7
			c-2.5,2.5-5.3,5-8,7.3l-0.6,0.5c-1.8,1.6-3.6,3.1-5.4,4.6c-1.5,1.3-3,2.5-4.4,3.8c-0.8,0.7-1.5,1.3-2.2,2
			c-0.8,0.7-1.6,1.5-2.4,2.2c-1.3,1.1-2.5,2.1-3.8,3.1c-1,0.8-2,1.6-3.1,2.5c-1.3,1-2.5,2.1-3.8,3.2c-0.9,0.8-1.8,1.5-2.6,2.2
			c-1.1,0.9-2.1,1.8-3.2,2.7c-1,0.8-1.9,1.6-2.9,2.4c-1.9,1.6-9.1,7.7-10.9,9.1c-1.5,1.2-2.9,2.4-4.4,3.7c-2.4,2-4.9,4.1-7.3,6.1
			c-1.4,1.2-2.8,2.4-4.3,3.6c-1.5,1.3-3,2.6-4.5,3.8c-1.8,1.5-3.6,3-5.4,4.5c-1.9,1.6-3.7,3.1-5.6,4.7c-0.8,0.7-1.6,1.4-2.4,2.1
			c-0.9,0.8-1.7,1.6-2.6,2.3c-1.5,1.2-3,2.5-4.5,3.7c-1,0.8-2,1.6-2.9,2.4c-0.7,0.6-1.4,1.1-2.1,1.7c-0.5,0.4-1,0.9-1.6,1.3
			c-0.8,0.6-1.6,1.3-2.3,1.9c-1.4,1.1-2.8,2.3-4.2,3.4c-1.1,0.9-2.1,1.8-3.2,2.8c-1.3,1.1-2.6,2.3-3.9,3.4c-3.4,2.8-6.8,5.6-9.8,7.9
			c-3.2,2.6-6.5,5.1-9.6,7.5c-0.3,0.2-0.6,0.4-1,0.5c-0.4,0.1-0.8,0.2-1.2,0.3c-0.6,0.1-1.3,0.3-2,0.6C67.6,197.9,66.9,198,66.1,198
			z"/>
		<path d="M207.9,67.7c0.3,0,0.5,0,0.7,0.1c0.3,0,0.8,0.1,0.9,0.1l0.1,0.1c0.4,0.3,1.1,0.9,1.3,1.2c0.3,2.4,0.3,4.5,0,6.2
			c-0.1,0.6-0.7,1.4-1.2,2.2c-0.3,0.4-0.6,0.8-0.8,1.2c0,0,0,0,0,0c-0.3,0.3-1,0.9-1,2c0,0.5-0.2,0.7-1.2,1.5
			c-0.3,0.2-0.6,0.5-0.9,0.8c-2.5,2.5-5.3,4.9-8,7.3l-0.6,0.5c-1.8,1.6-3.6,3.1-5.4,4.6c-1.5,1.3-3,2.5-4.5,3.8
			c-0.8,0.7-1.5,1.4-2.3,2.1c-0.8,0.8-1.6,1.5-2.4,2.2c-1.2,1-2.5,2.1-3.8,3.1c-1,0.8-2.1,1.6-3.1,2.5c-1.3,1.1-2.6,2.1-3.8,3.2
			c-0.9,0.8-1.8,1.5-2.6,2.2c-1.1,0.9-2.1,1.8-3.2,2.7c-1,0.8-2,1.6-2.9,2.4c-1.9,1.6-3.8,3.2-5.7,4.8c-1.7,1.5-3.5,2.9-5.2,4.4
			c-1.5,1.2-3,2.5-4.5,3.7c-2.4,2-4.8,4-7.2,6.1c-1.4,1.2-2.9,2.4-4.3,3.7c-1.5,1.3-3,2.6-4.5,3.8c-1.8,1.5-3.6,3-5.4,4.5
			c-1.9,1.6-3.7,3.1-5.6,4.7c-0.8,0.7-1.7,1.4-2.5,2.2c-0.9,0.8-1.7,1.6-2.6,2.3c-1.5,1.2-3,2.5-4.5,3.7c-1,0.8-2,1.6-2.9,2.3
			c-0.7,0.6-1.4,1.2-2.1,1.7c-0.5,0.4-1,0.9-1.5,1.3c-0.8,0.6-1.5,1.3-2.3,1.9c-1.4,1.1-2.8,2.3-4.2,3.5c-1.1,0.9-2.2,1.9-3.2,2.8
			c-1.3,1.1-2.6,2.3-3.9,3.4c-3.4,2.8-6.8,5.6-9.7,7.9c-3.2,2.5-6.4,5-9.6,7.5c-0.2,0.1-0.4,0.3-0.6,0.3c-0.3,0.1-0.7,0.2-1.1,0.3
			c-0.7,0.1-1.4,0.3-2.1,0.6c-0.6,0.2-1.2,0.3-1.8,0.3c-1,0-2.1-0.3-3.3-0.5c-0.5-0.1-1-0.2-1.5-0.3c-0.7-0.1-1.3-0.2-2-0.2
			c-0.6,0-1.1-0.1-1.5-0.2c-1.4-0.3-2.8-0.6-4.1-0.9c-1.1-0.3-2.2-0.5-3.4-0.8c-0.8-0.2-1.6-0.3-2.4-0.5c-1-0.2-2-0.4-2.9-0.6
			c-3.8-1-7.6-2-11.3-3l-2-0.6l-1.9-0.5c-2.4-0.7-5-1.3-7.4-2.1c-1.4-0.4-2.8-0.9-4.2-1.4c-1-0.4-2-0.7-3.1-1.1
			c-1-0.3-2.1-0.7-3.1-1c-1.1-0.3-2.2-0.7-3.3-1.1c-0.9-0.3-1.8-0.6-2.4-1.1l0,0c-0.1-0.2-0.1-0.5-0.3-1.1c-0.3-1-0.3-1.4-0.3-2.1
			c0-0.2,0-0.4-0.1-0.6c-0.2-2-0.3-4-0.3-6.3c0-1,0.8-1.9,1.7-2c0.2,0,0.3,0,0.5-0.1c0,0.1,0,0.2,0,0.4v1.4l1.4,0.5
			c0.7,0.2,1.4,0.5,2,0.7c1.5,0.5,2.9,1,4.4,1.4c1.8,0.5,3.6,1.1,5.6,1.5c2.5,0.5,5,1,7.4,1.5c1.7,0.3,3.4,0.7,5.1,1
			c1.5,0.3,3.1,0.7,4.6,1c2.8,0.6,5.6,1.2,8.5,1.8c3,0.5,6,1,8.9,1.5c2.1,0.3,4.3,0.7,6.5,1c0.9,0.2,1.9,0.5,3.2,1
			c0.5,0.2,1.1,0.3,1.6,0.3c1.7,0,2.8-1.2,3.2-1.6c0.5-0.5,0.9-1.1,1.4-1.6c0.7-0.8,1.3-1.6,2-2.2c1.8-1.6,3.8-3.1,5.6-4.5
			c0.8-0.6,1.6-1.3,2.4-1.9c0.5-0.4,1-0.8,1.5-1.2c1.2-0.9,2.4-1.9,3.5-2.8c0.8-0.7,1.6-1.3,2.3-2c0.9-0.8,1.8-1.5,2.7-2.3
			c1.9-1.5,3.9-3.1,5.8-4.6c2-1.6,3.9-3.1,5.9-4.7c1.2-1,2.5-2,3.6-3c1.1-1,2.3-1.9,3.5-2.9c1.4-1.1,2.9-2.3,4.3-3.4
			c1.8-1.4,3.6-2.8,5.4-4.3c1.7-1.4,3.3-2.8,4.9-4.1c1.6-1.3,3.2-2.7,4.8-4c1.1-0.9,2.3-1.8,3.5-2.7c1.1-0.8,2.1-1.6,3.2-2.5
			c1.7-1.4,3.4-2.8,5-4.1c1.8-1.5,3.6-3,5.5-4.5c1.1-0.9,2.3-1.8,3.5-2.7c1.3-1,2.6-1.9,3.8-3c1.5-1.2,3-2.5,4.5-3.7
			c1.6-1.3,3.2-2.7,4.9-4.1c1.3-1.1,2.7-2.1,4.1-3.1c1.2-0.9,2.5-1.9,3.7-2.8c1.9-1.5,3.8-3.1,5.6-4.6c1.2-1,2.4-2,3.6-3
			c1.9-1.5,3.7-3,5.6-4.5c1.2-1,2.5-2,3.7-3c1.3-1,2.5-2,3.8-3.1c1.2-0.9,2.3-1.9,3.5-2.8c1.4-1.1,2.8-2.3,4.3-3.4l3.1-2.5
			c0.2-0.2,0.5-0.3,0.7-0.5c0.8-0.5,1.6-1.1,2.2-2.1C207.8,69.4,207.9,68.5,207.9,67.7 M206,64.5c-0.1,0-0.2,0.1-0.5,0.1
			c0.1,0.6,0.3,1.2,0.4,1.8c0,0.9,0.2,2-0.3,2.6c-0.6,0.9-1.6,1.4-2.5,2.1c-2.5,2-4.9,3.9-7.4,5.9c-2.4,2-4.9,3.9-7.3,5.9
			c-3.1,2.5-6.3,5-9.4,7.5c-3.1,2.5-6.1,5.1-9.2,7.5c-2.6,2-5.3,3.9-7.8,5.9c-3.2,2.5-6.2,5.2-9.4,7.8c-2.4,1.9-4.9,3.7-7.3,5.7
			c-3.5,2.8-7,5.8-10.5,8.6c-2.2,1.8-4.5,3.4-6.7,5.2c-3.3,2.7-6.4,5.5-9.7,8.2c-3.2,2.6-6.5,5.1-9.7,7.7c-2.4,1.9-4.7,4-7.1,5.9
			c-3.9,3.1-7.8,6.2-11.7,9.3c-1.7,1.4-3.3,2.9-5,4.3c-1.6,1.4-3.3,2.6-5,4c-2.7,2.2-5.5,4.2-8.1,6.5c-1.3,1.1-2.3,2.6-3.5,3.9
			c-0.5,0.5-1,1-1.7,1c-0.3,0-0.5-0.1-0.8-0.2c-1.2-0.5-2.4-0.9-3.6-1.1c-5.1-0.9-10.3-1.6-15.4-2.5c-4.4-0.8-8.7-1.8-13.1-2.8
			c-4.2-0.9-8.3-1.7-12.5-2.6c-1.8-0.4-3.6-0.9-5.4-1.5c-2.1-0.6-4.1-1.3-6.4-2.1c0-1.9,0.1-4.2,0-6.4c0-1.4,0.7-2.1,1.8-2.6
			c1.4-0.6,2.7-1.3,4-2c2.6-1.5,5.2-3.2,7.9-4.7c3.6-2,7.2-3.9,10.8-5.8c3.1-1.7,6.1-3.4,9.1-5.2c1.2-0.7,2.5-1.4,3.7-2.1
			c1.6-0.9,3.1-1.9,4.7-2.7c2.4-1.3,5-2.4,7.4-3.7c1-0.5,1.9-1.1,2.8-1.7c0.3-0.2,0.3-0.7,0.5-1.1c-0.3,0-0.6-0.1-0.9-0.1
			c-0.1,0-0.2,0-0.3,0c-0.6,0.2-1.1,0.6-1.7,0.9c-3,1.5-5.9,3-8.9,4.6c-1.6,0.9-3.2,1.9-4.8,2.8c-3.9,2.1-7.7,4.1-11.6,6.2
			c-3.8,2-7.6,4.1-11.3,6.2c-3.4,2-6.6,4.3-10.1,6.1c-3.2,1.6-4.8,3.7-4.2,7.3c0.2,1.1-0.4,1.7-1.6,1.8c-2,0.2-3.6,2-3.6,4
			c0,2.2,0.1,4.3,0.3,6.5c0.1,1.1,0.1,1.6,0.5,3c0.5,1.8,0.6,1.8,1.1,2.2c0.9,0.6,1.9,1,2.9,1.3c2.1,0.7,4.3,1.3,6.5,2
			c2.5,0.8,4.9,1.8,7.4,2.5c3.1,0.9,6.2,1.8,9.3,2.6c4.5,1.2,8.9,2.4,13.4,3.6c1.8,0.5,3.6,0.7,5.4,1.1c2.5,0.6,5,1.2,7.5,1.7
			c1.2,0.2,2.4,0.2,3.5,0.4c1.7,0.4,3.4,0.9,5.2,0.9c0.8,0,1.7-0.1,2.6-0.5c1-0.4,2-0.5,3.1-0.8c0.5-0.1,0.9-0.4,1.3-0.7
			c3.2-2.5,6.4-5,9.6-7.5c3.3-2.6,6.6-5.2,9.8-7.9c2.4-2,4.7-4.2,7.1-6.2c2.1-1.8,4.3-3.6,6.5-5.4c1.2-1,2.4-2,3.6-3
			c2.5-2,5-4,7.5-6c1.7-1.4,3.4-3,5.1-4.4c3.7-3.1,7.4-6.1,11-9.2c2.9-2.5,5.8-5,8.8-7.5c3.9-3.3,7.8-6.5,11.7-9.8
			c3.6-3,7.2-6.1,10.9-9.1c2-1.7,4.1-3.4,6.1-5.1c2.1-1.8,4.3-3.6,6.4-5.4c2.3-1.9,4.6-3.7,6.9-5.6c1.6-1.4,3.1-2.9,4.7-4.2
			c3.3-2.8,6.6-5.6,9.9-8.4c3-2.6,5.9-5.1,8.7-7.9c1-1,2.7-1.9,2.6-3.8c0-0.3,0.5-0.5,0.6-0.8c0.8-1.4,2.1-2.7,2.4-4.2
			c0.4-2.2,0.3-4.6,0-6.9c-0.1-0.9-1.3-1.8-2.1-2.4C209.4,65.2,207.1,66.4,206,64.5C206,64.5,206,64.5,206,64.5L206,64.5z"/>
	</g>
</g>
<g id="Layer_4">
	<g>
		<path class="st3" d="M7,172.2c0,0,36.9,11.9,54.7,14.3"/>
		<path d="M7,172.2c9.2,2.1,18.3,4.6,27.4,7.1L48,183c4.5,1.2,9.1,2.4,13.7,3.5c-4.7-0.2-9.4-1.1-14-2c-2.3-0.4-4.6-1-6.9-1.5
			c-2.3-0.6-4.6-1.2-6.9-1.8c-4.5-1.3-9.1-2.6-13.6-4.1C15.8,175.6,11.4,174,7,172.2z"/>
	</g>
	<g>
		<path class="st3" d="M66.2,186.7c0,0,1.1,0,13.2-8.7s72.7-59.8,72.7-59.8"/>
		<path d="M66.2,186.7c1-0.5,2-1.2,2.9-1.8c0.9-0.6,1.9-1.3,2.8-2c1.9-1.3,3.7-2.7,5.5-4.1c3.7-2.7,7.2-5.6,10.7-8.6l21.1-17.6
			c7.1-5.8,14.1-11.7,21.3-17.4c7.1-5.8,14.3-11.5,21.5-17.1c-6.8,6.2-13.6,12.3-20.5,18.3c-6.9,6-13.9,11.9-21,17.8
			c-7.1,5.8-14.2,11.6-21.4,17.2c-3.6,2.8-7.3,5.6-11.1,8.2c-1.9,1.3-3.8,2.5-5.8,3.7C70.2,184.5,68.3,185.8,66.2,186.7z"/>
	</g>
	<g>
		<line class="st3" x1="155.8" y1="116" x2="209" y2="70.5"/>
		<path d="M155.8,116c4.2-4.1,8.4-8.1,12.8-12c4.3-3.9,8.7-7.7,13.1-11.5c4.4-3.8,8.9-7.5,13.4-11.2c4.5-3.7,9.1-7.3,13.8-10.8
			c-4.2,4.1-8.4,8.1-12.8,12c-4.3,3.9-8.7,7.7-13.1,11.5c-4.4,3.8-8.9,7.5-13.4,11.2C165.1,108.9,160.5,112.5,155.8,116z"/>
	</g>
	<g>
		<line class="st3" x1="69.7" y1="195.3" x2="69.2" y2="188.5"/>
		<path d="M69.6,195.3c-0.2-1.1-0.4-2.3-0.6-3.4c-0.1-0.6-0.3-1.1-0.2-1.7c0-0.6,0.1-1.2,0.3-1.7l0.1,0c0.3,0.5,0.5,1.1,0.6,1.7
			c0.1,0.6,0,1.1,0,1.7C69.8,193,69.8,194.2,69.6,195.3L69.6,195.3z"/>
	</g>
	<g>
		<line class="st3" x1="67.8" y1="173" x2="67.3" y2="179.8"/>
		<path d="M67.9,173c0.1,1.1,0.1,2.3,0.1,3.4c0,0.6,0.1,1.2,0,1.7c-0.1,0.6-0.3,1.1-0.6,1.7l-0.1,0c-0.2-0.6-0.3-1.2-0.3-1.7
			c0-0.6,0.1-1.1,0.2-1.7C67.4,175.3,67.6,174.1,67.9,173L67.9,173z"/>
	</g>
	<g>
		<path class="st3" d="M80.2,114.5c0,0,0.6-29.2-0.8-40.8"/>
		<path d="M80.2,114.5c-0.4-3.4-0.5-6.8-0.7-10.2c-0.1-3.4-0.2-6.8-0.3-10.2c0-3.4,0-6.8,0-10.2l0.1-10.2c0.8,3.3,1.2,6.8,1.5,10.2
			c0.3,3.4,0.4,6.8,0.4,10.2c0,3.4,0,6.8-0.2,10.2C80.9,107.7,80.6,111.1,80.2,114.5z"/>
	</g>
	<g>
		<path class="st3" d="M8.2,62c0,0,25.9,7.6,67.2,8.3"/>
		<path d="M8.2,62c2.8,0.5,5.6,1.1,8.3,1.5c2.8,0.5,5.6,0.9,8.4,1.3c5.6,0.8,11.2,1.6,16.8,2.2c2.8,0.3,5.6,0.7,8.4,0.9l4.2,0.4
			c1.4,0.1,2.8,0.2,4.2,0.4l16.9,1.5c-2.8,0.1-5.7,0.2-8.5,0.2c-2.8,0-5.7,0-8.5-0.2c-5.7-0.2-11.3-0.7-17-1.3
			c-5.6-0.7-11.2-1.5-16.8-2.7C19,65.2,13.5,63.9,8.2,62z"/>
	</g>
	<g>
		<line class="st3" x1="89.8" y1="67.2" x2="204" y2="11.5"/>
		<path d="M89.8,67.2c9.3-5,18.7-9.9,28.2-14.6c9.4-4.8,18.9-9.5,28.4-14.1c9.5-4.6,19.1-9.2,28.6-13.7c9.6-4.5,19.2-8.9,28.9-13.2
			c-9.3,5-18.7,9.9-28.2,14.6c-9.4,4.8-18.9,9.5-28.4,14.1c-9.5,4.6-19.1,9.2-28.6,13.7C109.1,58.5,99.5,62.9,89.8,67.2z"/>
	</g>
</g>
</svg>
