<?xml version="1.0" encoding="utf-8"?>
<!-- Generator: Adobe Illustrator 22.0.0, SVG Export Plug-In . SVG Version: 6.00 Build 0)  -->
<svg version="1.1" xmlns="http://www.w3.org/2000/svg" xmlns:xlink="http://www.w3.org/1999/xlink" x="0px" y="0px"
	 viewBox="0 0 140.8 131.4" style="enable-background:new 0 0 140.8 131.4;" xml:space="preserve">
<style type="text/css">
	.st0{fill:#FFFFFF;}
</style>
<g id="Layer_2">
</g>
<g id="Layer_3">
	<g>
		<path class="st0" d="M6,5.7c0.7-1.8,2-2.5,3.9-2.5c33,0,66,0,98.9,0c2.6,0,3.8,1.2,3.8,3.8c0,3.3,0,6.7,0,10
			c0,2.3-1.3,3.6-3.6,3.6c-2,0-4,0-6.1,0c0,21.5,0,43,0,64.6c0.2-0.2,0.4-0.3,0.6-0.5c2.1-2.1,4.2-4.2,6.3-6.3
			c8.1-7.9,21.2-4.6,25,5.6c2.2,6,0.9,11.4-3.5,16c-1.1,1.2-2.2,2.3-3.4,3.4c-1.4,1.4-3.3,1.5-4.6,0.2c-1.3-1.3-1.3-3.2,0.2-4.7
			c1.2-1.2,2.5-2.4,3.6-3.7c3.2-3.5,3.1-8.8-0.2-12c-3.5-3.5-8.7-3.8-12.3-0.5c-2.5,2.4-4.9,4.9-7.4,7.3c-1.3,1.3-2.7,2.6-4,4
			c-0.2,0.2-0.4,0.6-0.4,0.9c0,5.4,0,10.9,0,16.3c0,0.1,0,0.2,0.1,0.4c1.4,0,2.8,0,4.1,0c0.7,0,1.4,0,2.1,0c1.9,0,3.3,1.3,3.4,3.2
			c0.1,3.7,0.1,7.4,0,11.1c0,1.8-1.5,3.1-3.3,3.1c-1.7,0-3-1.3-3.1-3.1c0-2.3,0-4.7,0-7c0-0.3,0-0.6,0-0.9c-31.3,0-62.5,0-93.8,0
			c0,1.5,0,3,0,4.6c0.4,0,0.7,0,1.1,0c24.2,0,48.4,0,72.6,0c1.1,0,2.1,0.2,2.9,1.1c0.9,1,1,2.1,0.5,3.3c-0.5,1.2-1.5,1.9-2.8,1.9
			c-3.7,0-7.4,0-11,0c-21.9,0-43.9,0-65.8,0c-1.9,0-3.2-0.7-3.9-2.5c0-4.2,0-8.3,0-12.5c0.5-1.2,1.2-2.1,2.5-2.3
			c0.3-0.1,0.7-0.1,1-0.1c2,0,4,0,6,0c0-30.3,0-60.6,0-90.9c-1.8,0-3.6-0.1-5.4,0c-2,0.1-3.4-0.5-4.2-2.5C6,14.1,6,9.9,6,5.7z
			 M96.6,31c-0.4,0.3-0.6,0.6-0.8,0.8C81.9,45.7,68,59.5,54.1,73.4c-10.5,10.5-21,21-31.5,31.5c-0.2,0.2-0.5,0.5-0.5,0.8
			c0,1.9,0,3.9,0,5.9c2.5,0,5,0,7.4,0c0.6,0,0.9-0.2,1.3-0.6C48.2,93.6,65.6,76.2,83,58.8c1.4-1.4,2.7-2.8,4.1-4.1
			c0.9-0.8,1.9-1.1,3.1-0.7c1.2,0.4,2,1.3,2.2,2.6c0.2,1.3-0.4,2.2-1.3,3.1C74.1,76.7,57.1,93.7,40,110.8c-0.2,0.2-0.4,0.4-0.7,0.8
			c0.4,0,0.7,0,0.9,0c4.2,0,8.4,0,12.6,0c0.5,0,0.9-0.2,1.3-0.5c14-14,28-28,42-42c0.4-0.4,0.6-0.8,0.6-1.3c0-11.9,0-23.9,0-35.8
			C96.6,31.7,96.6,31.4,96.6,31z M74.5,20.9c-0.1-0.1-0.1-0.2-0.2-0.3c-4.4,0-8.9,0-13.3,0c-0.5,0-0.9,0.2-1.3,0.5
			C47.4,33.6,35,46,22.6,58.4c-0.4,0.4-0.6,0.8-0.6,1.4c0,11.9,0,23.8,0,35.6c0,0.3,0,0.6,0,1c0.3-0.3,0.5-0.5,0.7-0.7
			C47.2,71.3,71.6,47,95.9,22.6c0.6-0.6,0.8-1.1,0.6-1.9c-0.3,0-0.6,0-0.8,0c-3.7,0-7.3,0-11,0c-0.8,0-1.3,0.2-1.8,0.7
			c-15.7,15.7-31.3,31.3-47,47c-0.6,0.6-1.2,1.3-1.9,1.8c-1,0.8-2.2,1-3.3,0.4c-1.2-0.6-1.8-1.6-1.8-2.9c0-1.1,0.6-1.9,1.3-2.6
			c14.5-14.5,29-29,43.6-43.5C74,21.3,74.3,21.1,74.5,20.9z M106.2,9.7c-31.3,0-62.5,0-93.8,0c0,1.5,0,3,0,4.6c31.3,0,62.5,0,93.8,0
			C106.2,12.7,106.2,11.2,106.2,9.7z M62.7,111.6c4.6,0,9.1,0,13.6,0c0.3,0,0.6-0.2,0.8-0.4c6.3-6.3,12.7-12.6,19-19
			c0.2-0.2,0.4-0.7,0.4-1c0-4.3,0-8.5,0-12.8c0-0.2,0-0.4-0.1-0.6C85.2,89,74,100.3,62.7,111.6z M22,49.7c9.7-9.7,19.4-19.4,29-29
			c-0.2,0-0.5,0-0.7,0c-3.9,0-7.8,0-11.8,0c-1.1,0-1.8,0.2-2.6,1c-4.4,4.5-8.9,9-13.4,13.4c-0.4,0.4-0.6,0.8-0.6,1.3
			c0,4.2,0,8.3,0,12.5C22,49.2,22,49.5,22,49.7z M96.5,111.5c0-3.6,0-7.1,0-10.5c-3.5,3.5-7,7-10.5,10.5
			C89.5,111.5,93,111.5,96.5,111.5z M22.1,20.7c0,2,0,3.9,0,5.6c1.9-1.9,3.8-3.8,5.6-5.6C25.9,20.7,24,20.7,22.1,20.7z"/>
	</g>
</g>
</svg>
